<svg width="200" height="200" viewBox="0 0 200 200" xmlns="http://www.w3.org/2000/svg">
  <defs>
    <linearGradient id="chainGradient" x1="0%" y1="0%" x2="100%" y2="100%">
      <stop offset="0%" style="stop-color:#3498db;stop-opacity:1" />
      <stop offset="100%" style="stop-color:#2ecc71;stop-opacity:1" />
    </linearGradient>
    
    <linearGradient id="solanaGradient" x1="0%" y1="0%" x2="100%" y2="100%">
      <stop offset="0%" style="stop-color:#9945FF;stop-opacity:1" />
      <stop offset="100%" style="stop-color:#14F195;stop-opacity:1" />
    </linearGradient>

    <clipPath id="innerArea">
      <circle cx="100" cy="100" r="100" />
    </clipPath>
  </defs>
  
  <!-- 内部背景圆，稍微小于外圆环 -->
  <circle cx="100" cy="100" r="100" fill="#0A0F1F" clip-path="url(#innerArea)"/>
  
  <!-- 外圆环 -->
  <circle cx="100" cy="100" r="90" fill="none" stroke="url(#solanaGradient)" stroke-width="10" stroke-dasharray="20 10"/>
  
  <g stroke="url(#solanaGradient)" stroke-width="3">
    <line x1="100" y1="100" x2="99" y2="45"/>
    <line x1="100" y1="100" x2="155" y2="65"/>
    <line x1="100" y1="100" x2="145" y2="135"/>
    <line x1="100" y1="100" x2="99" y2="165"/>
    <line x1="100" y1="100" x2="45" y2="125"/>
    <line x1="100" y1="100" x2="55" y2="75"/>
  </g>
  
  <g fill="url(#solanaGradient)">
    <circle cx="100" cy="35" r="12"/>
    <circle cx="155" cy="65" r="12"/>
    <circle cx="145" cy="135" r="12"/>
    <circle cx="100" cy="165" r="12"/>
    <circle cx="45" cy="125" r="12"/>
    <circle cx="55" cy="75" r="12"/>
  </g>

  <circle cx="100" cy="100" r="20" fill="url(#solanaGradient)"/>
</svg>
