<svg width="200" height="200" viewBox="0 0 200 200" xmlns="http://www.w3.org/2000/svg">
  <!-- <rect width="200" height="200" fill="#0A0F1F"/> -->
  <defs>
    <linearGradient id="chainGradient" x1="0%" y1="0%" x2="100%" y2="100%">
      <stop offset="0%" style="stop-color:#3498db;stop-opacity:1" />
      <stop offset="100%" style="stop-color:#2ecc71;stop-opacity:1" />
    </linearGradient>
    
    <linearGradient id="solanaGradient" x1="0%" y1="0%" x2="100%" y2="100%">
      <stop offset="0%" style="stop-color:#9945FF;stop-opacity:1" />
      <stop offset="100%" style="stop-color:#14F195;stop-opacity:1" />
    </linearGradient>
    <clipPath id="innerArea">
      <circle cx="100" cy="100" r="100" />
    </clipPath>
  </defs>
  <circle cx="100" cy="100" r="100" fill="#0A0F1F" clip-path="url(#innerArea)"/>
  
  <circle cx="100" cy="100" r="90" fill="none" stroke="url(#solanaGradient)" stroke-width="10" stroke-dasharray="20 10"/>
  
  <g stroke="url(#solanaGradient)" stroke-width="3">
    <line x1="100" y1="100" x2="99" y2="40"/>
    <line x1="100" y1="100" x2="150" y2="70"/>
    <line x1="100" y1="100" x2="150" y2="130"/>
    <line x1="100" y1="100" x2="101" y2="160"/>
    <line x1="100" y1="100" x2="50" y2="130"/>
    <line x1="100" y1="100" x2="50" y2="70"/>
  </g>
  
  <g fill="url(#solanaGradient)">
    <circle cx="100" cy="40" r="12"/>
    <circle cx="150" cy="70" r="12"/>
    <circle cx="150" cy="130" r="12"/>
    <circle cx="100" cy="160" r="12"/>
    <circle cx="50" cy="130" r="12"/>
    <circle cx="50" cy="70" r="12"/>
  </g>

  <circle cx="100" cy="100" r="24" fill="url(#solanaGradient)"/>
</svg>